<?xml version="1.0" standalone="no"?><svg xmlns="http://www.w3.org/2000/svg" viewBox="0 0 1440 320"><path fill="#19222A" fill-opacity="1" d="M0,32L17.1,48C34.3,64,69,96,103,117.3C137.1,139,171,149,206,160C240,171,274,181,309,202.7C342.9,224,377,256,411,234.7C445.7,213,480,139,514,112C548.6,85,583,107,617,112C651.4,117,686,107,720,96C754.3,85,789,75,823,74.7C857.1,75,891,85,926,74.7C960,64,994,32,1029,42.7C1062.9,53,1097,107,1131,106.7C1165.7,107,1200,53,1234,32C1268.6,11,1303,21,1337,42.7C1371.4,64,1406,96,1423,112L1440,128L1440,320L1422.9,320C1405.7,320,1371,320,1337,320C1302.9,320,1269,320,1234,320C1200,320,1166,320,1131,320C1097.1,320,1063,320,1029,320C994.3,320,960,320,926,320C891.4,320,857,320,823,320C788.6,320,754,320,720,320C685.7,320,651,320,617,320C582.9,320,549,320,514,320C480,320,446,320,411,320C377.1,320,343,320,309,320C274.3,320,240,320,206,320C171.4,320,137,320,103,320C68.6,320,34,320,17,320L0,320Z"></path></svg>